<svg width="24" height="24" viewBox="0 0 24 24" fill="none" xmlns="http://www.w3.org/2000/svg">
<path fill-rule="evenodd" clip-rule="evenodd" d="M12 6C12 7.86384 10.7252 9.42994 9 9.87398V10V10.083V12.126V16H7V12.126C5.27477 12.5701 4 14.1362 4 16C4 18.2091 5.79086 20 8 20C10.2091 20 12 18.2091 12 16C12 14.9856 11.6224 14.0593 11 13.3542V10.8027C12.7934 11.8401 14 13.7792 14 16C14 19.3137 11.3137 22 8 22C4.68629 22 2 19.3137 2 16C2 13.027 4.16229 10.559 7 10.083V9.87398C5.27477 9.42994 4 7.86384 4 6C4 3.79086 5.79086 2 8 2C10.2091 2 12 3.79086 12 6ZM17 12C18.6569 12 20 10.6569 20 9C20 7.34315 18.6569 6 17 6C15.3431 6 14 7.34315 14 9C14 10.6569 15.3431 12 17 12ZM22 17C22 18.6569 20.6569 20 19 20C17.3431 20 16 18.6569 16 17C16 15.3431 17.3431 14 19 14C20.6569 14 22 15.3431 22 17Z" fill="#FF3D00"/>
</svg>
